<svg version="1.1" viewBox="0.0 0.0 960.0 720.0" fill="none" stroke="none" stroke-linecap="square" stroke-miterlimit="10" xmlns:xlink="http://www.w3.org/1999/xlink" xmlns="http://www.w3.org/2000/svg"><clipPath id="p.0"><path d="m0 0l960.0 0l0 720.0l-960.0 0l0 -720.0z" clip-rule="nonzero"/></clipPath><g clip-path="url(#p.0)"><path fill="#000000" fill-opacity="0.0" d="m0 0l960.0 0l0 720.0l-960.0 0z" fill-rule="evenodd"/><path fill="#000000" fill-opacity="0.0" d="m284.82416 224.25197l325.7008 0l0 135.74803l-325.7008 0z" fill-rule="evenodd"/><path fill="#002366" d="m301.2304 325.41196l0 -68.71875l23.671875 0q8.015625 0 12.234375 0.984375q5.90625 1.359375 10.078125 4.921875q5.4375 4.59375 8.125 11.75q2.703125 7.140625 2.703125 16.328125q0 7.828125 -1.828125 13.875q-1.828125 6.046875 -4.6875 10.015625q-2.859375 3.953125 -6.265625 6.234375q-3.390625 2.265625 -8.203125 3.4375q-4.796875 1.171875 -11.03125 1.171875l-24.796875 0zm9.09375 -8.109375l14.671875 0q6.796875 0 10.65625 -1.265625q3.875 -1.265625 6.171875 -3.5625q3.234375 -3.234375 5.03125 -8.6875q1.8125 -5.46875 1.8125 -13.25q0 -10.78125 -3.546875 -16.5625q-3.53125 -5.796875 -8.59375 -7.765625q-3.65625 -1.40625 -11.765625 -1.40625l-14.4375 0l0 52.5zm58.96875 8.109375l0 -68.71875l8.4375 0l0 68.71875l-8.4375 0zm35.34375 0l-18.9375 -49.78125l8.90625 0l10.6875 29.8125q1.734375 4.828125 3.1875 10.03125q1.125 -3.9375 3.140625 -9.46875l11.0625 -30.375l8.671875 0l-18.84375 49.78125l-7.875 0zm34.078125 0l0 -49.78125l7.59375 0l0 7.546875q2.90625 -5.296875 5.359375 -6.984375q2.46875 -1.6875 5.421875 -1.6875q4.265625 0 8.671875 2.71875l-2.90625 7.828125q-3.09375 -1.828125 -6.1875 -1.828125q-2.765625 0 -4.96875 1.671875q-2.203125 1.65625 -3.140625 4.609375q-1.40625 4.5 -1.40625 9.84375l0 26.0625l-8.4375 0z" fill-rule="nonzero"/><path fill="#003cad" d="m471.57416 325.41196l0 -68.71875l13.6875 0l16.265625 48.65625q2.25 6.796875 3.28125 10.171875q1.171875 -3.75 3.65625 -11.015625l16.453125 -47.8125l12.234375 0l0 68.71875l-8.765625 0l0 -57.515625l-19.96875 57.515625l-8.203125 0l-19.875 -58.5l0 58.5l-8.765625 0zm113.25 -16.03125l8.71875 1.078125q-2.0625 7.640625 -7.640625 11.859375q-5.578125 4.21875 -14.25 4.21875q-10.921875 0 -17.328125 -6.71875q-6.390625 -6.734375 -6.390625 -18.875q0 -12.5625 6.46875 -19.5q6.46875 -6.9375 16.78125 -6.9375q9.984375 0 16.3125 6.796875q6.328125 6.796875 6.328125 19.125q0 0.75 -0.046875 2.25l-37.125 0q0.46875 8.203125 4.640625 12.5625q4.171875 4.359375 10.40625 4.359375q4.640625 0 7.921875 -2.4375q3.28125 -2.4375 5.203125 -7.78125zm-27.703125 -13.640625l27.796875 0q-0.5625 -6.28125 -3.1875 -9.421875q-4.03125 -4.875 -10.453125 -4.875q-5.8125 0 -9.78125 3.890625q-3.953125 3.890625 -4.375 10.40625z" fill-rule="nonzero"/><path fill="#002366" d="m263.78217 251.59055l33.850372 33.850403l-16.925201 0l0 50.775574l339.878 0l0 -16.92517l33.85034 33.850372l-33.85034 33.850403l0 -16.925201l-373.7284 0l0 -84.62598l-16.925186 0z" fill-rule="evenodd"/><path stroke="#000000" stroke-width="1.0" stroke-linejoin="round" stroke-linecap="butt" d="m263.78217 251.59055l33.850372 33.850403l-16.925201 0l0 50.775574l339.878 0l0 -16.92517l33.85034 33.850372l-33.85034 33.850403l0 -16.925201l-373.7284 0l0 -84.62598l-16.925186 0z" fill-rule="evenodd"/></g></svg>