<svg version="1.1" viewBox="0.0 0.0 1500.0 1500.0" fill="none" stroke="none" stroke-linecap="square" stroke-miterlimit="10" xmlns:xlink="http://www.w3.org/1999/xlink" xmlns="http://www.w3.org/2000/svg"><clipPath id="p.0"><path d="m0 0l1500.0 0l0 1500.0l-1500.0 0l0 -1500.0z" clip-rule="nonzero"/></clipPath><g clip-path="url(#p.0)"><path fill="#000000" fill-opacity="0.0" d="m0 0l1500.0 0l0 1500.0l-1500.0 0z" fill-rule="evenodd"/><path fill="#002366" d="m251.59055 750.0l182.0943 -182.0943l0 160.47217l76.465576 0l0 -215.02179l218.22745 0l0 -73.00983l-160.47217 0l182.0943 -182.09427l182.0943 182.09427l-160.47217 0l0 73.00983l218.22748 0l0 215.02179l76.465576 0l0 -160.47217l182.09424 182.0943l-182.09424 182.0943l0 -160.47217l-76.465576 0l0 215.02179l-218.22748 0l0 73.009766l160.47217 0l-182.0943 182.09436l-182.0943 -182.09436l160.47217 0l0 -73.009766l-218.22745 0l0 -215.02179l-76.465576 0l0 160.47217z" fill-rule="evenodd"/><path stroke="#fffee1" stroke-width="1.0" stroke-linejoin="round" stroke-linecap="butt" d="m251.59055 750.0l182.0943 -182.0943l0 160.47217l76.465576 0l0 -215.02179l218.22745 0l0 -73.00983l-160.47217 0l182.0943 -182.09427l182.0943 182.09427l-160.47217 0l0 73.00983l218.22748 0l0 215.02179l76.465576 0l0 -160.47217l182.09424 182.0943l-182.09424 182.0943l0 -160.47217l-76.465576 0l0 215.02179l-218.22748 0l0 73.009766l160.47217 0l-182.0943 182.09436l-182.0943 -182.09436l160.47217 0l0 -73.009766l-218.22745 0l0 -215.02179l-76.465576 0l0 160.47217z" fill-rule="evenodd"/><path fill="#fffee1" d="m549.1892 798.0l0 -95.4375l32.875 0q11.140625 0 17.0 1.359375q8.203125 1.890625 14.0 6.84375q7.546875 6.375 11.28125 16.3125q3.75 9.921875 3.75 22.6875q0 10.859375 -2.546875 19.265625q-2.53125 8.390625 -6.5 13.90625q-3.96875 5.5 -8.6875 8.65625q-4.71875 3.15625 -11.390625 4.78125q-6.671875 1.625 -15.34375 1.625l-34.4375 0zm12.640625 -11.265625l20.375 0q9.4375 0 14.796875 -1.75q5.375 -1.765625 8.578125 -4.953125q4.484375 -4.484375 6.984375 -12.0625q2.515625 -7.59375 2.515625 -18.40625q0 -14.96875 -4.921875 -23.0q-4.90625 -8.046875 -11.9375 -10.78125q-5.078125 -1.953125 -16.34375 -1.953125l-20.046875 0l0 72.90625zm81.894714 11.265625l0 -95.4375l11.71875 0l0 95.4375l-11.71875 0zm49.089966 0l-26.3125 -69.140625l12.375 0l14.84375 41.40625q2.40625 6.703125 4.421875 13.9375q1.5625 -5.46875 4.359375 -13.15625l15.375 -42.1875l12.046875 0l-26.171875 69.140625l-10.9375 0zm47.320312 0l0 -69.140625l10.546875 0l0 10.484375q4.03125 -7.359375 7.453125 -9.703125q3.421875 -2.34375 7.515625 -2.34375q5.9375 0 12.046875 3.78125l-4.03125 10.875q-4.296875 -2.546875 -8.59375 -2.546875q-3.84375 0 -6.90625 2.3125q-3.0625 2.3125 -4.359375 6.40625q-1.953125 6.25 -1.953125 13.671875l0 36.203125l-11.71875 0zm45.633667 0l0 -95.4375l19.015625 0l22.59375 67.578125q3.125 9.4375 4.546875 14.125q1.640625 -5.203125 5.078125 -15.296875l22.859375 -66.40625l16.984375 0l0 95.4375l-12.171875 0l0 -79.875l-27.734375 79.875l-11.390625 0l-27.609375 -81.25l0 81.25l-12.171875 0zm157.29773 -22.265625l12.09375 1.5q-2.859375 10.609375 -10.609375 16.46875q-7.734375 5.859375 -19.78125 5.859375q-15.171875 0 -24.0625 -9.34375q-8.890625 -9.34375 -8.890625 -26.203125q0 -17.453125 8.984375 -27.078125q8.984375 -9.640625 23.3125 -9.640625q13.875 0 22.65625 9.4375q8.78125 9.4375 8.78125 26.5625q0 1.046875 -0.0625 3.125l-51.5625 0q0.65625 11.390625 6.453125 17.453125q5.796875 6.046875 14.453125 6.046875q6.4375 0 11.0 -3.375q4.5625 -3.390625 7.234375 -10.8125zm-38.484375 -18.9375l38.609375 0q-0.78125 -8.734375 -4.421875 -13.09375q-5.609375 -6.765625 -14.53125 -6.765625q-8.0625 0 -13.5625 5.40625q-5.5 5.390625 -6.09375 14.453125z" fill-rule="nonzero"/></g></svg>